<?xml version="1.0" standalone="no"?>
<!DOCTYPE svg PUBLIC "-//W3C//DTD SVG 20010904//EN"
 "http://www.w3.org/TR/2001/REC-SVG-20010904/DTD/svg10.dtd">
<svg version="1.0" xmlns="http://www.w3.org/2000/svg"
 width="700.000000pt" height="700.000000pt" viewBox="0 0 700.000000 700.000000"
 preserveAspectRatio="xMidYMid meet">
<metadata>
Created by potrace 1.14, written by Peter Selinger 2001-2017
</metadata>
<g transform="translate(0.000000,700.000000) scale(0.100000,-0.100000)"
fill="#000000" stroke="none">
<path d="M1957 5913 c-5 -18 -16 -63 -22 -93 -12 -56 -37 -169 -55 -250 -12
-52 -23 -103 -25 -113 -2 -10 -6 -26 -9 -35 -3 -9 -8 -30 -11 -47 -2 -16 -7
-39 -10 -50 -2 -11 -14 -63 -25 -115 -12 -52 -23 -102 -25 -110 -6 -27 -47
-212 -50 -232 -2 -11 -6 -27 -9 -36 -3 -9 -7 -28 -10 -42 -4 -19 -74 -336 -91
-410 -4 -17 -52 -235 -71 -322 -3 -15 -5 -29 -4 -30 1 -2 -3 -15 -8 -29 -6
-14 -13 -41 -16 -60 -3 -19 -8 -43 -10 -54 -3 -11 -23 -103 -46 -205 -22 -102
-52 -232 -65 -290 -14 -58 -33 -148 -44 -200 -11 -52 -39 -176 -61 -275 -41
-184 -46 -204 -56 -252 -3 -16 -11 -53 -19 -83 -8 -30 -16 -68 -19 -85 -7 -37
-5 -27 -60 -275 -25 -113 -54 -243 -65 -290 -11 -47 -22 -96 -25 -110 -3 -14
-8 -36 -11 -50 -3 -14 -10 -45 -15 -70 -5 -25 -18 -85 -30 -135 -36 -161 -71
-319 -76 -345 -3 -14 -9 -41 -14 -60 -5 -19 -11 -47 -14 -62 l-5 -28 449 0
448 0 6 24 c6 25 53 238 63 286 5 26 6 30 16 70 7 27 226 1012 233 1046 2 11
40 182 84 380 45 197 84 373 86 389 3 17 16 73 28 125 13 52 27 113 31 135 5
22 9 45 11 50 6 29 146 653 150 670 3 16 109 494 131 590 2 11 6 31 9 45 3 14
7 33 10 42 3 10 7 30 10 45 3 16 11 53 19 83 7 30 16 69 19 85 3 17 19 91 36
165 17 74 32 144 34 155 3 11 19 83 36 160 17 77 33 148 35 158 2 10 6 26 9
35 3 9 7 28 10 42 2 14 7 37 11 53 l7 27 -450 0 c-421 0 -451 -1 -455 -17z"/>
<path d="M3135 5908 c-18 -78 -35 -158 -40 -187 -3 -19 -8 -37 -10 -41 -2 -4
-7 -22 -10 -41 -3 -19 -21 -101 -40 -184 -19 -82 -36 -161 -38 -175 -3 -14
-10 -43 -15 -65 -6 -22 -14 -53 -17 -70 -3 -16 -8 -41 -11 -55 -3 -14 -7 -33
-10 -42 -3 -9 -7 -27 -9 -40 -4 -20 -26 -124 -30 -138 -1 -6 -28 -122 -30
-130 0 -3 -4 -21 -8 -40 -4 -19 -9 -44 -11 -55 -2 -11 -16 -72 -31 -135 -15
-63 -28 -122 -30 -130 -2 -8 -22 -100 -45 -205 -23 -104 -43 -197 -45 -205 -2
-8 -15 -67 -29 -130 -15 -63 -29 -126 -32 -140 -3 -14 -43 -198 -90 -410 -47
-212 -87 -392 -89 -400 -2 -8 -13 -58 -25 -110 -12 -52 -23 -106 -26 -120 -3
-14 -21 -95 -40 -180 -20 -85 -38 -166 -40 -180 -3 -13 -46 -207 -96 -430 -49
-223 -91 -412 -93 -420 -11 -52 -77 -348 -81 -362 -5 -17 21 -18 445 -18 248
0 451 2 451 5 0 3 16 76 36 163 20 86 37 164 39 172 2 13 158 712 242 1085 13
61 27 121 29 135 3 14 12 54 21 90 8 36 17 74 18 85 2 11 13 63 25 115 12 52
24 106 26 120 3 14 10 43 16 65 5 22 12 49 14 60 7 37 12 59 28 126 8 37 18
79 21 93 3 14 7 36 10 49 5 24 94 422 100 447 2 8 11 49 20 90 9 41 18 82 20
90 2 8 13 60 25 115 11 55 25 116 30 135 5 19 12 51 15 70 3 19 10 51 15 70 9
32 113 495 124 551 3 13 30 137 61 274 31 138 65 288 75 335 17 79 54 246 65
298 l5 22 -450 0 -450 0 -5 -22z"/>
<path d="M4296 5818 c-25 -115 -77 -343 -101 -453 -23 -109 -125 -567 -171
-770 -24 -110 -46 -209 -48 -220 -3 -11 -14 -63 -26 -115 -12 -52 -24 -106
-26 -120 -3 -14 -9 -41 -14 -60 -5 -19 -11 -46 -14 -60 -7 -39 -144 -655 -166
-750 -19 -80 -143 -641 -176 -794 -8 -38 -24 -106 -34 -151 -10 -44 -21 -92
-24 -105 -2 -14 -13 -65 -24 -115 -12 -49 -66 -295 -122 -545 -55 -250 -103
-463 -106 -473 -5 -16 41 -17 898 -15 593 2 903 6 904 13 0 13 9 54 39 185 13
58 26 116 29 130 3 14 7 34 10 45 11 48 25 112 30 135 3 14 7 34 10 45 13 57
25 113 30 135 2 14 10 48 16 75 17 73 16 70 45 200 15 66 28 129 31 140 2 11
24 110 48 220 25 110 47 211 50 225 3 14 14 63 25 110 10 47 46 210 80 362 34
152 70 314 81 360 10 46 22 95 25 111 3 15 7 39 10 55 3 15 15 65 26 112 11
47 31 135 44 197 31 141 31 144 51 228 19 86 17 75 48 220 15 66 31 140 37
165 6 25 12 52 14 60 34 159 77 354 85 385 6 22 13 51 15 65 5 27 13 63 20 95
22 95 56 246 60 270 3 17 10 46 15 65 5 19 27 121 50 225 22 105 43 198 46
208 5 16 -42 17 -894 17 l-900 0 -26 -112z"/>
</g>
</svg>
