<?xml version="1.0" encoding="utf-8"?>
<!-- Generator: Adobe Illustrator 27.1.1, SVG Export Plug-In . SVG Version: 6.00 Build 0)  -->
<svg version="1.1" id="Layer_1" shape-rendering="crispEdges"
	 xmlns="http://www.w3.org/2000/svg" xmlns:xlink="http://www.w3.org/1999/xlink" x="0px" y="0px" width="7400px" height="1400px"
	 viewBox="0 0 7400 1400" style="enable-background:new 0 0 7400 1400;" xml:space="preserve">
<style type="text/css">
	.st0{fill:#FFBE00;}
	.st1{fill:#D2222D;}
	.st2{fill:#005AD9;}
	.st3{fill:#FFFFFF;}
</style>
<polygon class="st0" points="300,100 300,200 200,200 200,300 200,400 200,500 200,600 100,600 100,700 100,800 100,900 100,1000 
	100,1100 100,1200 100,1300 200,1300 200,1200 300,1200 300,1100 300,1000 300,900 300,800 400,800 400,700 400,600 400,500 
	400,400 400,300 400,200 400,100 "/>
<polygon class="st1" points="700,100 700,200 600,200 600,300 600,400 600,500 600,600 500,600 500,700 500,800 500,900 500,1000 
	500,1100 500,1200 500,1300 600,1300 600,1200 700,1200 700,1100 700,1000 700,900 700,800 800,800 800,700 800,600 800,500 
	800,400 800,300 800,200 800,100 "/>
<polygon class="st2" points="1300,100 1200,100 1100,100 1100,200 1000,200 1000,300 1000,400 1000,500 1000,600 900,600 900,700 
	900,800 900,900 900,1000 900,1100 900,1200 900,1300 1000,1300 1100,1300 1200,1300 1200,1200 1300,1200 1300,1100 1300,1000 
	1300,900 1300,800 1400,800 1400,700 1400,600 1400,500 1400,400 1400,300 1400,200 1400,100 "/>
<path class="st3" d="M2500,300V200h-100V100h-100h-100h-100h-100h-100h-100h-100v100h-100v100v100v100h-100v100v100v100v100v100v100
	v100h100v100h100h100v-100h100v-100v-100h100v100h100v100h100v100h100h100v-100h100v-100v-100V900h-100V800h100V700h100V600V500V400
	V300H2500z M2200,600h-100v100h-100h-100V600V500h100V400h100v100h100V600z"/>
<path class="st3" d="M3700,400V300V200h-100V100h-100h-100h-100h-100v100h-100v100h-100v100h-100v100v100h-100v100v100h-100v100v100
	v100v100h100v100h100h100v-100h100v-100h100v-100h100h100v100h100v100v100h100h100v-100h100v-100v-100V900V800V700V600V500V400H3700
	z M3500,700h-100h-100h-100V600h100V500h100v100h100V700z"/>
<polygon class="st3" points="4900,300 4900,200 4800,200 4800,100 4700,100 4600,100 4500,100 4400,100 4300,100 4300,200 4200,200 
	4100,200 4100,300 4000,300 4000,400 4000,500 3900,500 3900,600 3900,700 3900,800 3900,900 4000,900 4000,1000 4000,1100 
	4100,1100 4100,1200 4200,1200 4300,1200 4400,1200 4400,1300 4500,1300 4600,1300 4700,1300 4800,1300 4800,1200 4900,1200 
	4900,1100 4900,1000 4800,1000 4800,900 4700,900 4600,900 4500,900 4400,900 4400,800 4300,800 4300,700 4300,600 4400,600 
	4400,500 4500,500 4600,500 4700,500 4700,600 4800,600 4900,600 4900,500 5000,500 5000,400 5000,300 "/>
<polygon class="st3" points="6000,200 6000,100 5900,100 5800,100 5700,100 5600,100 5500,100 5400,100 5400,200 5300,200 5300,300 
	5300,400 5200,400 5200,500 5200,600 5200,700 5100,700 5100,800 5100,900 5100,1000 5100,1100 5100,1200 5200,1200 5200,1300 
	5300,1300 5400,1300 5500,1300 5600,1300 5700,1300 5800,1300 5900,1300 5900,1200 6000,1200 6000,1100 6000,1000 5900,1000 
	5800,1000 5700,1000 5600,1000 5500,1000 5500,900 5600,900 5600,800 5700,800 5800,800 5900,800 5900,700 5900,600 5800,600 
	5700,600 5600,600 5600,500 5700,500 5700,400 5800,400 5900,400 6000,400 6100,400 6100,300 6100,200 "/>
<path class="st3" d="M7200,300V200h-100V100h-100h-100h-100h-100h-100h-100h-100v100h-100v100v100v100h-100v100v100v100v100v100v100
	v100h100v100h100h100v-100h100v-100v-100h100v100h100v100h100v100h100h100v-100h100v-100v-100V900h-100V800h100V700h100V600V500V400
	V300H7200z M6900,600h-100v100h-100h-100V600V500h100V400h100v100h100V600z"/>
</svg>
